<?xml version="1.0" encoding="UTF-8"?>
<svg width="89px" height="11px" viewBox="0 0 89 11" version="1.1" xmlns="http://www.w3.org/2000/svg" xmlns:xlink="http://www.w3.org/1999/xlink">
    <!-- Generator: Sketch 46.2 (44496) - http://www.bohemiancoding.com/sketch -->
    <title>Untitled.svg</title>
    <desc>Created with Sketch.</desc>
    <defs></defs>
    <g id="Page-1" stroke="none" stroke-width="1" fill="none" fill-rule="evenodd">
        <g id="icon">
            <path d="M4.473,0.506009779 L0,5.03351078 L4.473,9.66880943 C4.899,10.1 5.538,10.1 5.964,9.66880943 C6.39,9.23761886 6.39,8.590833 5.964,8.15964243 L3.0885,5.24910607 L2.2365,5.78809428 L5.964,2.01517678 C6.177,1.79958149 6.2835,1.58398621 6.2835,1.26059328 C6.2835,0.93720035 6.177,0.721605064 5.964,0.506009779 C5.538,0.0748192068 4.899,0.0748192068 4.473,0.506009779 Z M16.827,0.506009779 L21.3,5.14130842 L16.827,9.77660707 C16.401,10.2077976 15.762,10.2077976 15.336,9.77660707 C14.91,9.3454165 14.91,8.69863064 15.336,8.26744007 L18.2115,5.35690371 L19.0635,5.89589193 L15.336,2.12297442 C15.123,1.90737914 15.0165,1.69178385 15.0165,1.36839092 C15.0165,1.04499799 15.123,0.829402707 15.336,0.613807422 C15.762,0.0748192068 16.401,0.0748192068 16.827,0.506009779 Z M8.52,9.88440471 C9.0525,10.1 9.6915,9.88440471 9.9045,9.3454165 L13.206,1.69178385 C13.3125,1.36839092 13.3125,1.15279564 13.206,0.829402707 C13.0995,0.613807422 12.8865,0.398212136 12.6735,0.18261685 C12.141,-0.0329784361 11.502,0.18261685 11.289,0.721605064 L7.9875,8.37523771 C7.881,8.69863064 7.881,8.91422593 7.9875,9.23761886 C8.094,9.56101179 8.307,9.77660707 8.52,9.88440471 L8.52,9.88440471 Z" id="Shape" fill="#000000" fill-rule="nonzero"></path>
            <path d="M35.35,5.353 L31.302,1.463 L30.282,2.615 L32.467,4.538 L27.267,4.538 L27.267,6.228 L32.467,6.228 L30.282,8.151 L31.302,9.303 L35.352,5.413 L35.35,5.353 Z M66.037,5.353 L61.987,1.463 L60.967,2.615 L63.153,4.538 L57.953,4.538 L57.953,6.228 L63.153,6.228 L60.968,8.151 L61.988,9.303 L66.038,5.413 L66.037,5.353 Z" id="Shape" fill="#9696A2" fill-rule="nonzero"></path>
            <polygon id="Shape" fill="#E84E1B" fill-rule="nonzero" points="46.586 10.483 41.586 5.483 41.586 2.483 44.586 0.483 46.586 2.483 48.586 0.483 51.586 2.483 51.586 5.483"></polygon>
            <rect id="Rectangle" fill="#FFFFFF" x="72" y="1" width="17" height="3"></rect>
            <rect id="Rectangle" fill="#006DFF" x="72" y="4" width="17" height="3"></rect>
            <rect id="Rectangle" fill="#FF1C00" x="72" y="7" width="17" height="3"></rect>
        </g>
    </g>
</svg>